<svg xmlns="http://www.w3.org/2000/svg" width="1200" height="630" viewBox="0 0 1200 630">
<rect width="100%" height="100%" fill="#111418"/>
<line x1="96" y1="0" x2="96" y2="300" stroke="#e9e4d8" stroke-width="1.6" opacity="0.16"/><circle cx="96" cy="300" r="2.5" fill="#e9e4d8" opacity="0.16"/><line x1="160" y1="0" x2="160" y2="430" stroke="#e9e4d8" stroke-width="1.6" opacity="0.26"/><circle cx="160" cy="430" r="2.5" fill="#e9e4d8" opacity="0.26"/><line x1="338" y1="0" x2="338" y2="150" stroke="#e9e4d8" stroke-width="1.6" opacity="0.19"/><circle cx="338" cy="150" r="2.5" fill="#e9e4d8" opacity="0.19"/><line x1="466" y1="0" x2="466" y2="120" stroke="#e9e4d8" stroke-width="1.6" opacity="0.3"/><circle cx="466" cy="120" r="2.5" fill="#e9e4d8" opacity="0.3"/><line x1="610" y1="0" x2="610" y2="110" stroke="#e9e4d8" stroke-width="1.6" opacity="0.22"/><circle cx="610" cy="110" r="2.5" fill="#e9e4d8" opacity="0.22"/><line x1="760" y1="0" x2="760" y2="140" stroke="#e9e4d8" stroke-width="1.6" opacity="0.24"/><circle cx="760" cy="140" r="2.5" fill="#e9e4d8" opacity="0.24"/><line x1="1040" y1="0" x2="1040" y2="380" stroke="#e9e4d8" stroke-width="1.6" opacity="0.2"/><circle cx="1040" cy="380" r="2.5" fill="#e9e4d8" opacity="0.2"/><line x1="1130" y1="0" x2="1130" y2="260" stroke="#e9e4d8" stroke-width="1.6" opacity="0.15"/><circle cx="1130" cy="260" r="2.5" fill="#e9e4d8" opacity="0.15"/><g transform="translate(220.0,258.5) scale(0.2044)"><path d="M489.0 1.0V59.0H295.0V700.0H225.0V59.0H30.0V1.0Z" fill="#e9e4d8"/>
<path d="M1369.0 1.0V700.0H1299.0V373.0H920.0V700.0H850.0V1.0H920.0V315.0H1299.0V1.0Z" fill="#e9e4d8"/>
<path d="M1849.0 58.0V319.0H2114.0V377.0H1849.0V642.0H2144.0V700.0H1779.0V0.0H2144.0V58.0Z" fill="#e9e4d8"/>
<path d="M2500.0 350.0Q2500.0 247.0 2545.5 165.5Q2591.0 84.0 2670.0 38.5Q2749.0 -7.0 2846.0 -7.0Q2944.0 -7.0 3023.0 38.5Q3102.0 84.0 3147.0 165.5Q3192.0 247.0 3192.0 350.0Q3192.0 453.0 3147.0 534.5Q3102.0 616.0 3023.0 661.5Q2944.0 707.0 2846.0 707.0Q2749.0 707.0 2670.0 661.5Q2591.0 616.0 2545.5 534.5Q2500.0 453.0 2500.0 350.0ZM3120.0 350.0Q3120.0 261.0 3084.0 194.0Q3048.0 127.0 2986.0 91.0Q2924.0 55.0 2846.0 55.0Q2768.0 55.0 2706.0 91.0Q2644.0 127.0 2608.0 194.0Q2572.0 261.0 2572.0 350.0Q2572.0 439.0 2608.0 506.5Q2644.0 574.0 2706.0 610.0Q2768.0 646.0 2846.0 646.0Q2924.0 646.0 2986.0 610.0Q3048.0 574.0 3084.0 506.5Q3120.0 439.0 3120.0 350.0Z" fill="#e9e4d8"/>
<line x1="3605.0" y1="0.0" x2="3605.0" y2="700.0" stroke="#e9e4d8" stroke-width="70.0"/>
<circle cx="3605.0" cy="434.0" r="56.0" fill="#c9a45c"/>
</g>
</svg>
